<?xml version="1.0" encoding="UTF-8" standalone="no"?>
<!DOCTYPE svg PUBLIC "-//W3C//DTD SVG 1.1//EN" "http://www.w3.org/Graphics/SVG/1.1/DTD/svg11.dtd">
<svg width="100%" height="100%" viewBox="0 0 246 566" version="1.1" xmlns="http://www.w3.org/2000/svg" xmlns:xlink="http://www.w3.org/1999/xlink" xml:space="preserve" xmlns:serif="http://www.serif.com/" style="fill-rule:evenodd;clip-rule:evenodd;stroke-linejoin:round;stroke-miterlimit:2;">
    <g id="Artboard1" transform="matrix(0.938931,0,0,1.233115,-99.526718,22.196078)">
        <rect x="106" y="-18" width="262" height="459" style="fill:none;"/>
        <g transform="matrix(1.56774,0,0,1.193725,-122.312381,-86.913545)">
            <path d="M284.325,171.617L284.343,171.617C295.118,177.736 301.693,188.283 301.693,199.579L301.693,411.362C301.693,425.831 289.958,437.485 275.57,437.485L182.812,437.485C168.343,437.485 156.689,425.832 156.689,411.362L156.689,199.579C156.689,188.3 163.183,177.737 173.958,171.617L202.067,155.536L202.067,128.534L201.839,128.534C196.809,128.534 192.757,124.481 192.757,119.533L192.757,105.357C192.757,102.118 195.328,99.53 198.583,99.53L259.683,99.53C262.922,99.53 265.51,102.118 265.51,105.357L265.51,119.533C265.51,124.481 261.522,128.534 256.509,128.534L256.216,128.534L256.216,155.536L284.325,171.617ZM215.204,91.733L215.188,91.733C211.939,91.726 209.132,89.547 208.466,86.525L204.917,70.347C204.022,66.294 207.294,62.485 211.656,62.485L246.665,62.485C251.027,62.485 254.299,66.294 253.404,70.347L249.855,86.525C249.188,89.569 246.389,91.733 243.117,91.733L215.204,91.733Z"/>
        </g>
    </g>
</svg>
