<?xml version="1.0" encoding="UTF-8" standalone="no"?>
<!DOCTYPE svg PUBLIC "-//W3C//DTD SVG 1.1//EN" "http://www.w3.org/Graphics/SVG/1.1/DTD/svg11.dtd">
<svg width="100%" height="100%" viewBox="0 0 365 304" version="1.1" xmlns="http://www.w3.org/2000/svg" xmlns:xlink="http://www.w3.org/1999/xlink" xml:space="preserve" xmlns:serif="http://www.serif.com/" style="fill-rule:evenodd;clip-rule:evenodd;stroke-linejoin:round;stroke-miterlimit:2;">
    <g transform="matrix(1,0,0,1,-11.708333,-10.9375)">
        <g transform="matrix(1,0,0,1,-34,-88)">
            <g transform="matrix(4.166667,0,0,4.166667,20.833333,41.666667)">
                <path d="M50,38.75C46.562,38.75 43.75,41.562 43.75,45C43.75,47.031 44.719,48.875 46.375,50.062C47.344,50.75 47.812,51.938 47.625,53.094L46.312,61.25L53.688,61.25L52.375,53.094C52.188,51.938 52.656,50.75 53.625,50.062C55.281,48.875 56.25,47.031 56.25,45C56.25,41.562 53.438,38.75 50,38.75Z" style="fill-rule:nonzero;"/>
            </g>
            <g transform="matrix(4.166667,0,0,4.166667,19.666667,42.166667)">
                <path d="M79.531,13.625L20.469,13.625C12.625,13.625 6.25,20 6.25,27.844L6.25,43.188L31.312,43.188C33.031,43.188 34.437,44.594 34.437,46.313C34.437,48.032 33.031,49.438 31.312,49.438L6.25,49.438L6.25,83.25C6.25,84.969 7.656,86.375 9.375,86.375L90.625,86.375C92.344,86.375 93.75,84.969 93.75,83.25L93.75,49.438L68.688,49.438C66.969,49.438 65.563,48.032 65.563,46.313C65.563,44.594 66.969,43.188 68.688,43.188L93.75,43.188L93.75,27.844C93.75,20 87.375,13.625 79.531,13.625ZM60.437,63.875C60.593,64.781 60.312,65.688 59.718,66.406C59.125,67.094 58.281,67.5 57.343,67.5L42.655,67.5C41.718,67.5 40.874,67.094 40.28,66.406C39.687,65.687 39.405,64.781 39.562,63.875L41.187,53.844C38.843,51.5 37.499,48.344 37.499,45C37.499,38.125 43.093,32.5 49.999,32.5C56.905,32.5 62.499,38.125 62.499,45C62.499,48.344 61.155,51.5 58.812,53.844L60.437,63.875Z" style="fill-rule:nonzero;"/>
            </g>
        </g>
    </g>
</svg>
